<svg id="vctrjm" xmlns="http://www.w3.org/2000/svg" width="1080" height="500" viewBox="0 290 1080 500">
  <defs>
    <style>
      .cls-1 {
        fill-rule: evenodd;
      }
    </style>
  </defs>
  <path id="m" class="cls-1" d="M709.116,634.408h-72.8V398.116h72.8v8.519A94.582,94.582,0,0,1,816.64,420.159c34.309-26.61,79.738-31.725,116.808-13.742,31.008,15.043,52.269,44.235,59.145,77.558V634.408H917.441V499.474a32.61,32.61,0,0,0-63.892,0V634.408H778.041V499.474a33.86,33.86,0,0,0-65.9,0V634.408h-3.022Z"/>
  <path id="j" class="cls-1" d="M712.736,399.084H635.188V673.3a42.485,42.485,0,0,1-26.4,23.42l-19.141.326v74.43h22.293A102.243,102.243,0,0,0,712.736,673.3V399.084Z"/>
  <path id="r" class="cls-1" d="M584.676,634.408H508.428V483.975a107.755,107.755,0,0,1,109.3-84.891h18.264v74.5H617.727a39.437,39.437,0,0,0-33.051,32.98V634.408Z"/>
  <path id="t" class="cls-1" d="M453.465,336.238H375q0.089,99.505.178,199.011c0.907,29.962,14.227,58.45,37.791,77.3a101.136,101.136,0,0,0,63.557,21.86h30.02V559.877l-16.278-.579a35.154,35.154,0,0,1-36.073-32.637l-0.728-53.081h62.791v-74.5H453.465V336.238Z"/>
  <path id="c" class="cls-1" d="M375.716,559.877v74.531H281.538c-61.6-6.108-108.42-58.914-107.34-119.772,1.054-59.311,47.312-109.62,107.34-115.552h94.178v74.5H294.542c-21.832,2.249-38.61,20.087-39.609,41.056-1.069,22.451,16.215,42.776,39.609,45.241h81.174Z"/>
  <g id="V">
    <path class="cls-1" d="M75.3,399H4l63.51,112.535h8.914a57.539,57.539,0,0,0,46.8-55.711C123.437,428.053,103.1,403.724,75.3,399Z"/>
    <path class="cls-1" d="M139.3,634.1L275.862,399H208.48a55.35,55.35,0,0,0-44.039,26.741L90.9,551.644Z"/>
  </g>
  <circle cx="669.765" cy="348.875" r="40.36"/>
  <path id="Ellipse_3_copy" data-name="Ellipse 3 copy" class="cls-1" d="M1035.65,554.145a40.367,40.367,0,1,1-40.363,40.367A40.366,40.366,0,0,1,1035.65,554.145Z"/>
</svg>
